<svg xmlns="http://www.w3.org/2000/svg" xmlns:xlink="http://www.w3.org/1999/xlink" width="658pt" height="115pt" viewBox="0 0 658 115"><g id="graph0" class="graph" transform="scale(1 1) rotate(0) translate(4 111)"><title>communication_overview_http_app</title><polygon fill="#fff" stroke="transparent" points="-4 4 -4 -111 654 -111 654 4 -4 4"/><g id="clust1" class="cluster"><title>cluster_sandstorm</title><polygon fill="none" stroke="#000" points="112 -13 112 -94 401 -94 401 -13 112 -13"/><text x="256.5" y="-78.8" font-family="Times,serif" font-size="14" text-anchor="middle">Sandstorm</text></g><g id="clust2" class="cluster"><title>cluster_grain</title><polygon fill="none" stroke="#000" points="421 -8 421 -99 642 -99 642 -8 421 -8"/><text x="531.5" y="-83.8" font-family="Times,serif" font-size="14" text-anchor="middle">Grain</text></g><g id="node1" class="node"><title>client</title><polygon fill="none" stroke="#000" points="84 -60 0 -60 0 -24 84 -24 84 -60"/><text x="42" y="-45" font-family="Times,serif" font-size="10" text-anchor="middle">Web client</text><text x="42" y="-34" font-family="Times,serif" font-size="10" text-anchor="middle">(eg. browser)</text></g><g id="node2" class="node"><title>proxy</title><polygon fill="none" stroke="#000" points="213 -60 120 -60 120 -24 213 -24 213 -60"/><text x="166.5" y="-45" font-family="Times,serif" font-size="10" text-anchor="middle">Gateway</text><text x="166.5" y="-34" font-family="Times,serif" font-size="10" text-anchor="middle">(gateway.c++)</text></g><g id="edge1" class="edge"><title>client--proxy</title><path fill="none" stroke="#000" d="M84.13,-42C95.53,-42 107.98,-42 119.63,-42"/></g><g id="node3" class="node"><title>websession</title><polygon fill="none" stroke="#000" points="393 -62.5 249 -62.5 249 -21.5 393 -21.5 393 -62.5"/><text x="321" y="-50.5" font-family="Times,serif" font-size="10" text-anchor="middle">WebSession Serialization</text><text x="321" y="-39.5" font-family="Times,serif" font-size="10" text-anchor="middle">(HTTP over Cap&apos;n Proto,</text><text x="321" y="-28.5" font-family="Times,serif" font-size="10" text-anchor="middle">web-session.capnp)</text></g><g id="edge2" class="edge"><title>proxy--websession</title><path fill="none" stroke="#000" d="M213.26,-42C224.48,-42 236.77,-42 248.88,-42"/></g><g id="node4" class="node"><title>bridge</title><polygon fill="none" stroke="#000" points="528 -68 429 -68 429 -16 528 -16 528 -68"/><text x="478.5" y="-56" font-family="Times,serif" font-size="10" text-anchor="middle">Sandstorm</text><text x="478.5" y="-45" font-family="Times,serif" font-size="10" text-anchor="middle">HTTP Bridge</text><text x="478.5" y="-34" font-family="Times,serif" font-size="10" text-anchor="middle">(sandstorm-http</text><text x="478.5" y="-23" font-family="Times,serif" font-size="10" text-anchor="middle">-bridge.c++)</text></g><g id="edge3" class="edge"><title>websession--bridge</title><path fill="none" stroke="#000" d="M393.38,-42C405.35,-42 417.53,-42 428.77,-42"/></g><g id="node5" class="node"><title>app</title><polygon fill="none" stroke="#000" points="634 -60 564 -60 564 -24 634 -24 634 -60"/><text x="599" y="-39.5" font-family="Times,serif" font-size="10" text-anchor="middle">HTTP App</text></g><g id="edge4" class="edge"><title>bridge--app</title><path fill="none" stroke="#000" d="M528.04,-42C540.06,-42 552.68,-42 563.85,-42"/></g></g></svg>