<svg xmlns="http://www.w3.org/2000/svg" xmlns:xlink="http://www.w3.org/1999/xlink" width="586pt" height="140" viewBox="0 0 586 105"><g id="graph0" class="graph" transform="scale(1 1) rotate(0) translate(4 101)"><title>communication_overview_native_app</title><polygon fill="#fff" stroke="transparent" points="-4 4 -4 -101 582 -101 582 4 -4 4"/><g id="clust1" class="cluster"><title>cluster_sandstorm</title><polygon fill="none" stroke="#000" points="112 -8 112 -89 401 -89 401 -8 112 -8"/><text x="256.5" y="-73.8" font-family="Times,serif" font-size="14" text-anchor="middle">Sandstorm</text></g><g id="clust2" class="cluster"><title>cluster_grain</title><polygon fill="none" stroke="#000" points="421 -11 421 -86 570 -86 570 -11 421 -11"/><text x="495.5" y="-70.8" font-family="Times,serif" font-size="14" text-anchor="middle">Grain</text></g><g id="node1" class="node"><title>client</title><polygon fill="none" stroke="#000" points="84 -55 0 -55 0 -19 84 -19 84 -55"/><text x="42" y="-40" font-family="Times,serif" font-size="10" text-anchor="middle">Web client</text><text x="42" y="-29" font-family="Times,serif" font-size="10" text-anchor="middle">(eg. browser)</text></g><g id="node2" class="node"><title>proxy</title><polygon fill="none" stroke="#000" points="213 -55 120 -55 120 -19 213 -19 213 -55"/><text x="166.5" y="-40" font-family="Times,serif" font-size="10" text-anchor="middle">Gateway</text><text x="166.5" y="-29" font-family="Times,serif" font-size="10" text-anchor="middle">(gateway.c++)</text></g><g id="edge1" class="edge"><title>client--proxy</title><path fill="none" stroke="#000" d="M84.13,-37C95.53,-37 107.98,-37 119.63,-37"/></g><g id="node3" class="node"><title>websession</title><polygon fill="none" stroke="#000" points="393 -57.5 249 -57.5 249 -16.5 393 -16.5 393 -57.5"/><text x="321" y="-45.5" font-family="Times,serif" font-size="10" text-anchor="middle">WebSession Serialization</text><text x="321" y="-34.5" font-family="Times,serif" font-size="10" text-anchor="middle">(HTTP over Cap&apos;n Proto,</text><text x="321" y="-23.5" font-family="Times,serif" font-size="10" text-anchor="middle">web-session.capnp)</text></g><g id="edge2" class="edge"><title>proxy--websession</title><path fill="none" stroke="#000" d="M213.26,-37C224.48,-37 236.77,-37 248.88,-37"/></g><g id="node4" class="node"><title>app</title><polygon fill="none" stroke="#000" points="562 -55 429 -55 429 -19 562 -19 562 -55"/><text x="495.5" y="-40" font-family="Times,serif" font-size="10" text-anchor="middle">Native Sandstorm App</text><text x="495.5" y="-29" font-family="Times,serif" font-size="10" text-anchor="middle">(speaks Cap&apos;n Proto )</text></g><g id="edge3" class="edge"><title>websession--app</title><path fill="none" stroke="#000" d="M393.16,-37C404.94,-37 417.12,-37 428.76,-37"/></g></g></svg>