<svg xmlns="http://www.w3.org/2000/svg" xmlns:xlink="http://www.w3.org/1999/xlink" id="Layer_1" x="0" y="0" version="1.1" viewBox="81 0 304 223" style="enable-background:new 0 0 385 223" xml:space="preserve"><style type="text/css">.st0,.st1{stroke:#9fabce;stroke-miterlimit:10}.st0{fill:none;stroke-width:5}.st1{fill:#edf2f9}.st2{fill:#fff}.st3{fill:#4c4277}.st4{fill:#edf2f9}.st5{fill:#fff;stroke:#9fabce;stroke-miterlimit:10}.st6{fill:#8c9ec4}.st7{fill:#bcc9dd}</style><path d="M186.7,39.3c0,0-1.9-9.7,9.4-14.3c11.3-4.6,18.8,6.1,21.1,14.3C219.4,47.5,219,50,219,50" class="st0"/><path d="M184.6,36.3c0,0-0.1-18.3,29-25.4c31.2-7.6,83,34.4,27.7,117.8c-34.4,51.8,11.8,66.3,63,64.4	c51.2-1.9,63-28.8,63.9-37.2s-2.9-17.2-16-14.5c-13.2,2.7-71.8,64.2-106.1,61.1c-25.1-2.3-16.4-25.6-16.4-25.6" class="st0"/><path d="M256.5,211.5c0,2.2-1.8,4-4,4h-132c-2.2,0-4-1.8-4-4v-167c0-2.2,1.8-4,4-4h132c2.2,0,4,1.8,4,4V211.5z" class="st1"/><rect width="112" height="83" x="131" y="53" class="st2"/><ellipse cx="186.5" cy="91.4" class="st3" rx="24.7" ry="25.6"/><g><path d="M222,141.1c0-13.6-11-25.1-24.7-25.1h-21.1c-13.6,0-25.2,11.5-25.2,25.1v0.9h71V141.1z" class="st3"/></g><g><path d="M199.2,97.5c-1.4,3.9-6.3,6.8-12.3,6.8s-10.9-2.9-12.3-6.8c-0.5,1-0.7,2-0.7,3.1c0,5.1,5.8,9.3,13,9.3 c7.2,0,13-4.1,13-9.3C200,99.5,199.7,98.5,199.2,97.5z" class="st4"/></g><ellipse cx="186.6" cy="97.8" class="st3" rx="14.3" ry="6.5"/><rect width="112" height="9" x="131" y="136" class="st4"/><rect width="37" height="15" x="168.5" y="32.5" class="st5"/><rect width="52" height="10" x="131" y="151" class="st6"/><rect width="112" height="11" x="131" y="170" class="st6"/><rect width="34" height="10" x="209" y="190" class="st7"/></svg>