<svg xmlns="http://www.w3.org/2000/svg" xmlns:xlink="http://www.w3.org/1999/xlink" id="Layer_1" x="0" y="0" version="1.1" viewBox="0 0 115 77.7" style="enable-background:new 0 0 115 77.7" xml:space="preserve"><style type="text/css">.st0{fill:#c5cadb}.st1{fill:#dde1ed}.st2{fill:#d4d8e6}.st3{fill:#cdd1e0}.st4{fill:#c8ccdc}</style><polygon points="63 -.3 63 63.7 51 63.7 51 31.7 6 31.7 6 77.7 108 77.7 108 -.3" class="st0"/><g><polyline points="83.4 5.4 67.3 5.4 67.3 12.1 83.4 12.1 83.4 5.4" class="st1"/><polyline points="103.3 5.4 87.2 5.4 87.2 12.1 103.3 12.1 103.3 5.4" class="st1"/><polyline points="83.4 15.1 67.3 15.1 67.3 21.7 83.4 21.7 83.4 15.1" class="st1"/><polyline points="103.3 15.1 87.2 15.1 87.2 21.7 103.3 21.7 103.3 15.1" class="st2"/><polyline points="26.8 36.2 10.7 36.2 10.7 42.8 26.8 42.8 26.8 36.2" class="st1"/><polyline points="46.8 36.2 30.7 36.2 30.7 42.8 46.8 42.8 46.8 36.2" class="st1"/><polyline points="26.8 45.8 10.7 45.8 10.7 52.5 26.8 52.5 26.8 45.8" class="st1"/><polyline points="46.8 45.8 30.7 45.8 30.7 52.5 46.8 52.5 46.8 45.8" class="st2"/><polyline points="26.8 56 10.7 56 10.7 62.7 26.8 62.7 26.8 56" class="st2"/><polyline points="46.8 56 30.7 56 30.7 62.7 46.8 62.7 46.8 56" class="st2"/><polyline points="46.8 65.7 30.7 65.7 30.7 72.3 46.8 72.3 46.8 65.7" class="st3"/><polyline points="26.8 65.7 10.7 65.7 10.7 72.3 26.8 72.3 26.8 65.7" class="st3"/><polyline points="83.4 25.1 67.3 25.1 67.3 31.8 83.4 31.8 83.4 25.1" class="st2"/><polyline points="103.3 25.1 87.2 25.1 87.2 31.8 103.3 31.8 103.3 25.1" class="st2"/><polyline points="83.4 34.8 67.3 34.8 67.3 41.4 83.4 41.4 83.4 34.8" class="st3"/><polyline points="103.3 34.8 87.2 34.8 87.2 41.4 103.3 41.4 103.3 34.8" class="st3"/><polyline points="103.3 44.3 87.2 44.3 87.2 51 103.3 51 103.3 44.3" class="st4"/><polyline points="83.4 44.3 67.3 44.3 67.3 51 83.4 51 83.4 44.3" class="st3"/><polyline points="83.4 54 67.3 54 67.3 60.7 83.4 60.7 83.4 54" class="st4"/></g></svg>