<svg xmlns="http://www.w3.org/2000/svg" xmlns:xlink="http://www.w3.org/1999/xlink" id="Layer_1" x="0" y="0" version="1.1" viewBox="0 0 24 24" style="enable-background:new 0 0 24 24" xml:space="preserve"><style type="text/css">.st0{fill:#111}</style><path d="M23.5,7.2h-2.2V5.7c0-0.7-0.6-1.3-1.3-1.3H8.5L8.2,3.9C8,3.7,7.8,3.6,7.5,3.6H3.4C3.1,3.6,2.9,3.7,2.7,4	L2.4,4.4h-1C0.6,4.4,0,5,0,5.7V19c0,0.8,0.6,1.4,1.4,1.4h0.2h18.3h1.2c0.2,0,0.4-0.1,0.5-0.5L24,7.7C24,7.4,23.9,7.2,23.5,7.2z M0.7,19V5.7c0-0.3,0.3-0.6,0.7-0.6h1.4h0.1l0.5-0.8h0.1h4l0.6,0.8h0.1H20c0.4,0,0.7,0.3,0.7,0.6v1.5H3.9c-0.3,0-0.5,0.2-0.6,0.5	L1.1,19.6C0.8,19.5,0.7,19.3,0.7,19z" class="st0"/></svg>